<?xml version="1.0" standalone="no"?>
<!DOCTYPE svg PUBLIC "-//W3C//DTD SVG 20010904//EN"
 "http://www.w3.org/TR/2001/REC-SVG-20010904/DTD/svg10.dtd">
<svg version="1.0" xmlns="http://www.w3.org/2000/svg"
 width="134.000000pt" height="134.000000pt" viewBox="0 0 134.000000 134.000000"
 preserveAspectRatio="xMidYMid meet">
<metadata>
Created by potrace 1.11, written by Peter Selinger 2001-2013
</metadata>
<g transform="translate(0.000000,134.000000) scale(0.100000,-0.100000)"
fill="#000000" stroke="none">
<path d="M1 1048 c1 -269 2 -288 14 -232 58 264 286 473 560 513 42 6 -34 9
-257 10 l-318 1 1 -292z"/>
<path d="M765 1329 c278 -41 499 -247 560 -524 12 -55 13 -34 14 238 l1 297
-317 -1 c-224 -1 -300 -4 -258 -10z"/>
<path d="M555 1270 c-295 -64 -495 -307 -495 -600 0 -264 154 -480 410 -576
66 -24 89 -28 195 -28 133 -1 179 10 295 70 132 68 242 198 292 342 19 56 23
87 23 192 0 150 -19 218 -94 333 -76 117 -183 197 -328 248 -65 23 -232 34
-298 19z m-234 -264 c53 -19 107 -63 133 -110 13 -23 65 -172 117 -333 52
-160 96 -290 98 -287 3 2 46 134 97 293 51 160 100 303 108 319 22 43 99 107
144 120 53 16 106 16 99 0 -2 -7 -59 -181 -126 -385 -129 -393 -146 -430 -220
-480 -76 -51 -178 -36 -251 37 -35 35 -47 66 -169 432 -72 218 -131 398 -131
402 0 10 63 6 101 -8z"/>
<path d="M1 298 l-1 -298 318 1 c223 1 299 4 257 10 -276 40 -501 248 -559
516 -14 66 -14 57 -15 -229z"/>
<path d="M1330 563 c0 -44 -53 -183 -92 -244 -109 -170 -276 -279 -473 -308
-42 -6 34 -9 258 -10 l317 -1 0 295 c0 162 -2 295 -5 295 -3 0 -5 -12 -5 -27z"/>
</g>
</svg>
